HIERARCHY
ROOT joint_0
{
	OFFSET 0.000000 0.000000 0.000000
	CHANNELS 6 Xposition Yposition Zposition Zrotation Yrotation Xrotation 
	JOINT joint_1
	{
		OFFSET 7.745728 2.152245 124.869995
		CHANNELS 3 Zrotation Yrotation Xrotation
		JOINT joint_2
		{
			OFFSET -6.359406 2.617477 113.975952
			CHANNELS 3 Zrotation Yrotation Xrotation
			JOINT joint_3
			{
				OFFSET -8.187927 3.340103 113.713013
				CHANNELS 3 Zrotation Yrotation Xrotation
				JOINT joint_4
				{
					OFFSET 2.859222 5.755905 159.680054
					CHANNELS 3 Zrotation Yrotation Xrotation
					JOINT joint_5
					{
						OFFSET 22.724274 2.598469 88.906982
						CHANNELS 3 Zrotation Yrotation Xrotation
						End Site
						{
							OFFSET 0.000000 0.000000 0.000000
						}
					}
				}
				JOINT joint_6
				{
					OFFSET 2.312134 -31.513222 90.723022
					CHANNELS 3 Zrotation Yrotation Xrotation
					JOINT joint_7
					{
						OFFSET -0.486389 -150.827950 -17.660034
						CHANNELS 3 Zrotation Yrotation Xrotation
						JOINT joint_8
						{
							OFFSET 15.633850 -16.961029 -297.395020
							CHANNELS 3 Zrotation Yrotation Xrotation
							JOINT joint_9
							{
								OFFSET 5.600098 1.609863 -262.782959
								CHANNELS 3 Zrotation Yrotation Xrotation
								End Site
								{
									OFFSET 0.000000 0.000000 0.000000
								}
							}
						}
					}
				}
				JOINT joint_10
				{
					OFFSET 1.012756 37.963039 88.243042
					CHANNELS 3 Zrotation Yrotation Xrotation
					JOINT joint_11
					{
						OFFSET -2.397430 150.471996 -20.492065
						CHANNELS 3 Zrotation Yrotation Xrotation
						JOINT joint_12
						{
							OFFSET -10.575745 12.779427 -297.765015
							CHANNELS 3 Zrotation Yrotation Xrotation
							JOINT joint_13
							{
								OFFSET 196.311081 2.689713 -176.286011
								CHANNELS 3 Zrotation Yrotation Xrotation
								End Site
								{
									OFFSET 0.000000 0.000000 0.000000
								}
							}
						}
					}
				}
			}
		}
	}
	JOINT joint_14
	{
		OFFSET 1.244965 -96.891136 -118.152039
		CHANNELS 3 Zrotation Yrotation Xrotation
		JOINT joint_15
		{
			OFFSET -2.982971 -16.401871 -443.439026
			CHANNELS 3 Zrotation Yrotation Xrotation
			JOINT joint_16
			{
				OFFSET -42.052063 -15.386002 -460.966980
				CHANNELS 3 Zrotation Yrotation Xrotation
				JOINT joint_17
				{
					OFFSET 177.916595 102.818184 -88.655001
					CHANNELS 3 Zrotation Yrotation Xrotation
					End Site
					{
						OFFSET 0.000000 0.000000 0.000000
					}
				}
			}
		}
	}
	JOINT joint_18
	{
		OFFSET 1.788635 96.476997 -118.463074
		CHANNELS 3 Zrotation Yrotation Xrotation
		JOINT joint_19
		{
			OFFSET -9.555542 8.093691 -443.574951
			CHANNELS 3 Zrotation Yrotation Xrotation
			JOINT joint_20
			{
				OFFSET -48.427551 9.415819 -460.500023
				CHANNELS 3 Zrotation Yrotation Xrotation
				JOINT joint_21
				{
					OFFSET 204.978119 20.223980 -87.523996
					CHANNELS 3 Zrotation Yrotation Xrotation
					End Site
					{
						OFFSET 0.000000 0.000000 0.000000
					}
				}
			}
		}
	}
}
MOTION
Frames: 14
Frame Time: 0.016667
609.014709 -122.750702 1142.574951 1.892387 -1.301717 1.345326 0.405006 0.433665 -3.271628 0.615635 -0.037443 0.678353 0.526625 0.083528 -0.477906 -0.420262 0.152014 1.613604 0.000000 0.000000 0.000000 4.338519 -1.276997 6.059214 -0.375711 -0.686108 -7.711782 0.022307 1.186667 1.467873 0.000000 0.000000 0.000000 -1.143979 -2.231679 -0.050221 -2.972768 -2.243293 3.143727 -0.618653 49.312837 -2.452525 0.000000 0.000000 0.000000 -21.044893 1.753565 -1.654462 -20.913605 -2.524405 -3.535389 -21.262300 -0.619659 -10.474401 0.000000 0.000000 0.000000 -2.546495 1.504516 -1.021110 -2.588341 2.087029 -0.271688 -2.473379 2.386840 -1.286960 0.000000 0.000000 0.000000 
617.055298 -123.986702 1143.961060 1.686404 -1.637523 1.315620 0.489981 0.215959 -4.070032 0.762553 0.024785 0.937725 0.645799 -0.002262 -0.669410 -0.456250 0.379806 1.722833 0.000000 0.000000 0.000000 4.729368 -0.307760 5.797436 -0.362027 0.324630 -5.902286 -0.019244 -1.025616 -0.771035 0.000000 0.000000 0.000000 -2.771436 -0.640810 1.350853 -2.409386 -0.461784 1.693580 -0.269955 45.471762 -1.959932 0.000000 0.000000 0.000000 -20.897085 2.985603 -1.718607 -20.758642 -3.382947 -3.505644 -21.239573 -0.262604 -10.654996 0.000000 0.000000 0.000000 -2.547093 2.853721 -1.094215 -2.673471 1.173455 0.110477 -2.491742 2.626305 -1.318300 0.000000 0.000000 0.000000 
628.713928 -125.847008 1146.104004 1.374147 -1.817765 1.207024 0.670051 -0.616976 -5.281976 1.044788 0.193478 1.305634 0.896193 -0.241985 -0.933794 -0.522661 0.779411 1.920276 0.000000 0.000000 0.000000 5.361722 1.224105 5.330299 -0.428689 1.927835 -2.826748 -0.194884 -4.145226 -4.643988 0.000000 0.000000 0.000000 -5.940193 2.009087 3.003363 -1.127869 2.637552 -0.475486 0.628170 39.365425 -0.801705 0.000000 0.000000 0.000000 -20.633063 4.584514 -1.596479 -20.495325 -4.856916 -3.434029 -21.232006 0.488299 -11.070079 0.000000 0.000000 0.000000 -2.566142 4.545897 -1.152294 -2.810860 -0.299572 0.754330 -2.518185 3.140929 -1.379811 0.000000 0.000000 0.000000 
640.941711 -127.702576 1148.626953 1.223225 -1.882055 1.111372 0.805017 -1.412215 -6.356278 1.277927 0.320026 1.543375 1.111481 -0.496031 -1.118014 -0.582426 1.239282 2.079927 0.000000 0.000000 0.000000 5.608555 2.825546 3.994358 -0.862509 3.598297 1.011171 -0.520035 -9.921082 -7.354900 0.000000 0.000000 0.000000 -7.867863 4.523282 5.033059 0.506700 5.514643 -3.115866 1.708426 31.834008 0.728030 0.000000 0.000000 0.000000 -20.435746 5.419048 -1.521563 -20.325649 -5.122888 -3.690787 -21.189394 1.004893 -11.337958 0.000000 0.000000 0.000000 -2.698919 5.462215 -1.005923 -2.991333 -0.607071 0.990033 -2.650964 3.517724 -1.472374 0.000000 0.000000 0.000000 
651.112549 -129.009644 1151.489014 1.512184 -1.761818 1.154236 0.744310 -1.658572 -7.003829 1.287388 0.275638 1.606785 1.114842 -0.598444 -1.175102 -0.601002 1.756153 2.097364 0.000000 0.000000 0.000000 5.046893 4.452640 1.728487 -1.869351 5.256343 4.855244 -0.939105 -21.410864 -5.893418 0.000000 0.000000 0.000000 -6.434754 5.996713 7.916530 1.909886 6.912676 -6.030032 2.477900 22.633605 1.863305 0.000000 0.000000 0.000000 -20.526731 4.329626 -1.703532 -20.457419 -2.500615 -4.589359 -21.125540 0.761213 -11.171567 0.000000 0.000000 0.000000 -3.050969 4.358020 -0.470088 -3.208975 1.999797 0.104123 -3.001579 3.390317 -1.606948 0.000000 0.000000 0.000000 
660.351685 -130.003143 1154.831055 2.164464 -1.340705 1.295371 0.529088 -1.808994 -7.410890 1.099103 0.240831 1.534053 0.935397 -0.615752 -1.114965 -0.597663 2.344597 2.046434 0.000000 0.000000 0.000000 3.819142 6.196036 0.012545 -2.842384 6.824375 7.331405 -1.118742 -36.781014 0.048500 0.000000 0.000000 0.000000 -2.434570 6.726554 11.111977 2.321820 7.143649 -8.750517 2.365482 11.747967 1.922138 0.000000 0.000000 0.000000 -20.636245 1.633481 -2.019350 -20.697751 2.364216 -5.946934 -21.400733 0.252997 -11.035487 0.000000 0.000000 0.000000 -3.609265 1.506020 0.409680 -3.496883 6.855363 -1.683536 -3.619009 3.341805 -1.857496 0.000000 0.000000 0.000000 
671.605347 -131.279510 1157.749023 2.733673 -0.948410 1.372039 0.426587 -2.368029 -7.721097 1.010351 0.281640 1.437622 0.861231 -0.677390 -1.052111 -0.564158 3.050284 1.871680 0.000000 0.000000 0.000000 2.282739 7.750734 -1.318661 -3.307557 7.827664 8.139518 -1.043314 -51.162613 6.883830 0.000000 0.000000 0.000000 1.680724 7.719477 14.167129 1.509344 7.504003 -9.932469 1.147054 -0.235327 1.019922 0.000000 0.000000 0.000000 -20.300389 -0.899978 -2.389756 -20.601722 7.330201 -7.173905 -21.940778 0.115755 -11.207918 0.000000 0.000000 0.000000 -4.213990 -0.892167 1.313266 -3.881593 11.081576 -3.301960 -4.373643 3.829621 -2.210569 0.000000 0.000000 0.000000 
687.589417 -133.388702 1159.386963 2.861328 -0.866701 1.317456 0.635048 -3.722823 -8.170770 1.292361 0.419634 1.578103 1.137625 -0.923317 -1.185048 -0.443213 3.946645 1.349846 0.000000 0.000000 0.000000 0.875711 9.504248 -2.534581 -4.151305 8.625663 6.749776 -1.591669 -66.407212 12.604136 0.000000 0.000000 0.000000 4.449450 10.028980 16.720116 0.183186 9.390709 -7.559118 -0.444778 -15.184181 0.028212 0.000000 0.000000 0.000000 -19.477785 -1.987388 -2.861824 -19.968997 10.971410 -7.922027 -22.068598 0.369817 -11.321500 0.000000 0.000000 0.000000 -4.802383 -1.164516 1.984180 -4.403367 12.756937 -4.036696 -5.110605 4.314134 -2.555144 0.000000 0.000000 0.000000 
707.231506 -136.112335 1160.088013 2.710148 -1.014971 1.175823 1.035532 -5.605894 -8.652182 1.839543 0.607736 1.826442 1.673446 -1.326754 -1.413206 -0.241226 4.928990 0.523369 0.000000 0.000000 0.000000 -0.698124 10.956412 -2.772073 -6.567925 8.593528 2.624541 -3.641021 -83.779355 17.701843 0.000000 0.000000 0.000000 6.947100 12.705730 18.250869 -0.784796 11.883757 -1.018108 -0.947034 -32.223877 -0.220772 0.000000 0.000000 0.000000 -18.333981 -2.210864 -3.451191 -18.949581 14.052887 -8.337352 -21.758326 0.836255 -11.279460 0.000000 0.000000 0.000000 -5.431783 -0.066835 2.528845 -5.060186 12.941247 -4.269496 -5.871219 4.634646 -2.893909 0.000000 0.000000 0.000000 
726.781799 -138.697723 1160.989014 2.600540 -1.353776 0.991466 1.340616 -7.198382 -9.038697 2.348724 0.705824 1.912305 2.187374 -1.689801 -1.523848 -0.044722 5.648674 -0.227819 0.000000 0.000000 0.000000 -2.060881 11.067711 -2.944742 -10.536284 7.282275 -1.609240 172.961988 -82.261267 -157.234836 0.000000 0.000000 0.000000 9.079641 14.217424 19.147431 -0.776554 13.326113 5.650351 0.388921 -45.896939 0.741064 0.000000 0.000000 0.000000 -17.113961 -2.293278 -3.925587 -17.825985 17.186237 -8.673162 -21.427763 1.461657 -11.298355 0.000000 0.000000 0.000000 -5.848172 1.382720 2.911165 -5.540327 12.856879 -4.307222 -6.395516 5.084786 -3.144396 0.000000 0.000000 0.000000 
743.938293 -140.543961 1162.989014 2.739695 -1.807828 0.869892 1.323669 -8.191442 -9.445511 2.587179 0.737212 1.894610 2.441032 -1.903002 -1.550572 0.110817 6.025351 -0.708695 0.000000 0.000000 0.000000 -2.682416 10.000037 -3.710050 -15.778070 5.481327 -4.548365 168.278156 -71.653921 -149.771525 0.000000 0.000000 0.000000 10.510376 14.458733 20.206580 0.391879 13.235085 8.075839 2.381600 -55.444728 2.471496 0.000000 0.000000 0.000000 -15.880970 -2.807224 -4.210008 -16.704287 20.922732 -9.091741 -21.354251 2.423998 -11.625429 0.000000 0.000000 0.000000 -5.811731 2.478360 2.990522 -5.553120 13.258111 -4.258807 -6.417165 5.918027 -3.220289 0.000000 0.000000 0.000000 
760.105286 -141.928406 1165.666992 3.004006 -2.393334 0.806281 1.062031 -8.892650 -9.923267 2.665291 0.754814 1.913381 2.539301 -2.047299 -1.602034 0.292028 6.167806 -1.135006 0.000000 0.000000 0.000000 -2.704706 7.815806 -4.270590 -23.505477 2.988831 -7.476006 161.538863 -59.085337 -139.688160 0.000000 0.000000 0.000000 11.335208 14.117448 21.217374 2.573356 12.206514 7.567851 4.489232 -63.822333 4.606456 0.000000 0.000000 0.000000 -14.557265 -3.492850 -4.419759 -15.477607 25.035989 -9.401552 -21.255800 3.831208 -12.170861 0.000000 0.000000 0.000000 -5.402942 3.593204 2.776690 -5.204127 13.705419 -3.968645 -5.986281 7.018871 -3.135784 0.000000 0.000000 0.000000 
774.685364 -143.372177 1168.281982 3.423799 -2.880194 0.705047 0.773994 -9.275954 -10.331676 2.734294 0.755174 1.967703 2.631274 -2.135781 -1.680888 0.484138 6.026366 -1.538016 0.000000 0.000000 0.000000 -2.562007 2.139301 -4.424909 -31.605275 2.291975 -10.672004 166.539569 -52.455585 -138.440190 0.000000 0.000000 0.000000 11.308294 12.900643 21.904879 4.343843 10.403039 6.250234 5.461064 -70.098848 5.862221 0.000000 0.000000 0.000000 -13.527325 -4.519249 -4.529810 -14.527583 28.970273 -9.399406 -21.355792 4.883994 -12.611763 0.000000 0.000000 0.000000 -4.970841 4.296769 2.770188 -4.805296 14.443919 -3.901481 -5.529651 8.191681 -3.048685 0.000000 0.000000 0.000000 
786.756897 -145.306976 1170.527954 4.066592 -3.079770 0.460848 0.640849 -9.276484 -10.531834 2.899579 0.736982 2.016155 2.786146 -2.142984 -1.754371 0.617753 5.581611 -1.868452 0.000000 0.000000 0.000000 -0.766018 30.485950 -3.712286 114.548850 26.304484 -11.988836 37.719212 -61.206764 -162.410992 0.000000 0.000000 0.000000 10.239485 10.359559 21.737742 4.380738 7.949677 5.721374 4.559442 -72.970393 5.250382 0.000000 0.000000 0.000000 -13.073338 -6.233997 -4.457147 -14.163938 32.784707 -9.145581 -22.189687 4.740991 -12.702730 0.000000 0.000000 0.000000 -4.757575 4.091479 3.361734 -4.549979 15.867230 -4.443973 -5.332207 9.383263 -3.068871 0.000000 0.000000 0.000000 
